<?xml version="1.0" encoding="UTF-8"?>
<!DOCTYPE svg PUBLIC "-//W3C//DTD SVG 1.1//EN" "http://www.w3.org/Graphics/SVG/1.1/DTD/svg11.dtd">
<svg xmlns="http://www.w3.org/2000/svg" version="1.1" viewBox="225 615 1130 355" style="shape-rendering:geometricPrecision; text-rendering:geometricPrecision; image-rendering:optimizeQuality; fill-rule:evenodd; clip-rule:evenodd" xmlns:xlink="http://www.w3.org/1999/xlink">
<g><path fill="#d3ad49" stroke="#d3ad49" stroke-width="0.5" d="M 472.18,946.93 C 472.2,946.02 472.44,945.17 472.88,944.37 C 480.49,929.36 488.1,914.34 495.7,899.32 C 496.89,897.73 498.38,897.39 500.19,898.32 C 500.7,898.82 501.11,899.39 501.42,900.02 C 508.98,914.82 516.49,929.63 523.96,944.46 C 525.15,946.53 524.66,948.02 522.49,948.91 C 521.58,949.09 520.71,948.97 519.89,948.55 C 517.61,944.77 515.49,940.9 513.52,936.93 C 512.61,936.33 511.61,936.09 510.5,936.23 C 501.62,936.16 492.75,936.24 483.89,936.47 C 481.59,940.43 479.28,944.38 476.95,948.34 C 474.92,949.41 473.33,948.94 472.18,946.93 Z M 610.63,936.99 C 611.07,935.49 612.08,934.65 613.66,934.47 C 614.59,934.43 615.38,934.75 616.03,935.41 C 616.67,936.78 617.43,938.09 618.31,939.33 C 621.29,942.08 624.82,943.57 628.9,943.8 C 633.95,944.43 638.91,944.03 643.77,942.58 C 647.57,941.61 649.93,939.24 650.85,935.48 C 651.07,931.89 649.48,929.47 646.09,928.24 C 644.9,927.84 643.69,927.49 642.47,927.18 C 636.14,926.53 629.82,925.8 623.51,924.97 C 620.13,924.5 617.13,923.17 614.52,920.99 C 610.74,916.48 610.18,911.6 612.84,906.36 C 614.6,903.78 616.88,901.81 619.71,900.46 C 624.74,898.22 630,897.33 635.5,897.79 C 640.1,897.89 644.46,898.95 648.59,900.96 C 651.35,902.54 653.37,904.78 654.65,907.68 C 655.59,909.94 654.86,911.29 652.48,911.74 C 651.71,911.75 651.01,911.53 650.39,911.07 C 649.32,909.83 648.24,908.58 647.16,907.33 C 644.88,905.62 642.32,904.57 639.48,904.19 C 634.21,903.43 629.02,903.82 623.93,905.34 C 621.86,906.11 620.12,907.33 618.71,909.02 C 616.82,912.81 617.57,915.93 620.97,918.39 C 623.67,919.68 626.51,920.41 629.51,920.58 C 632.84,920.89 636.17,921.11 639.5,921.22 C 643.08,921.66 646.58,922.44 649.99,923.55 C 655.4,926.19 657.72,930.51 656.96,936.5 C 655.88,941.43 653.01,944.87 648.35,946.83 C 646.45,947.68 644.49,948.34 642.47,948.82 C 640.14,949.16 637.82,949.51 635.5,949.86 C 630.44,950.02 625.5,949.3 620.68,947.7 C 616.36,946.22 613.21,943.42 611.23,939.32 C 610.94,938.57 610.74,937.79 610.63,936.99 Z M 972.18,922 C 972.76,911.2 978.06,903.8 988.09,899.78 C 994.43,897.26 1000.84,897.09 1007.31,899.25 C 1010.84,900.43 1013.87,902.39 1016.39,905.13 C 1017.67,906.37 1017.82,907.71 1016.83,909.17 C 1015.88,909.97 1014.81,910.18 1013.62,909.8 C 1012.31,908.76 1010.99,907.73 1009.66,906.71 C 1004.38,903.25 998.7,902.36 992.6,904.05 C 983.56,906.38 978.7,912.19 978.02,921.49 C 977.58,930.36 981.1,937.16 988.58,941.9 C 992.31,943.96 996.29,944.67 1000.52,944.03 C 1005.93,943.18 1010.38,940.64 1013.87,936.41 C 1016.94,935.21 1018.36,936.24 1018.12,939.5 C 1015.94,943.11 1012.88,945.71 1008.94,947.32 C 1002.46,950.48 995.86,950.76 989.12,948.15 C 980.96,944.83 975.66,938.93 973.22,930.46 C 972.55,927.68 972.2,924.86 972.18,922 Z M 1041.94,937.01 C 1042.27,935.55 1043.2,934.71 1044.72,934.5 C 1045.88,934.38 1046.81,934.79 1047.49,935.72 C 1048.82,939.28 1051.3,941.62 1054.93,942.74 C 1059.92,943.98 1064.98,944.34 1070.11,943.82 C 1073.34,943.41 1076.31,942.32 1079.03,940.54 C 1081.9,938.3 1082.78,935.43 1081.67,931.94 C 1081.22,931.08 1080.64,930.34 1079.92,929.69 C 1078.12,928.54 1076.18,927.71 1074.09,927.22 C 1067.55,926.55 1061.03,925.78 1054.51,924.93 C 1052.46,924.45 1050.46,923.8 1048.53,922.96 C 1043.66,920.02 1041.72,915.72 1042.7,910.07 C 1043.93,905.57 1046.69,902.36 1050.98,900.43 C 1056.26,898.15 1061.77,897.28 1067.5,897.83 C 1072.05,898 1076.33,899.15 1080.33,901.28 C 1082.83,902.84 1084.68,904.95 1085.88,907.62 C 1086.72,910.51 1085.66,911.84 1082.68,911.61 C 1082.25,911.46 1081.84,911.25 1081.48,910.98 C 1080.46,909.66 1079.4,908.38 1078.28,907.15 C 1075.93,905.52 1073.33,904.52 1070.49,904.16 C 1065.54,903.49 1060.68,903.82 1055.88,905.14 C 1053.38,905.87 1051.34,907.27 1049.76,909.33 C 1048.31,912.31 1048.71,915.02 1050.94,917.46 C 1053.8,919.43 1056.99,920.46 1060.49,920.54 C 1063.82,920.89 1067.16,921.11 1070.5,921.2 C 1074.33,921.63 1078.06,922.47 1081.7,923.72 C 1086.85,926.45 1088.99,930.71 1088.12,936.51 C 1087.12,941.51 1084.23,944.98 1079.47,946.91 C 1075.31,948.62 1070.99,949.61 1066.5,949.87 C 1061.74,950 1057.09,949.34 1052.54,947.88 C 1047.92,946.48 1044.56,943.61 1042.45,939.27 C 1042.15,938.55 1041.98,937.79 1041.94,937.01 Z M 548.78,904 C 548.67,902.58 548.91,901.23 549.52,899.96 C 550.36,899.22 551.35,898.84 552.49,898.81 C 563.16,898.77 573.83,898.75 584.51,898.76 C 587.4,898.43 588.52,899.65 587.88,902.42 C 587.33,903.29 586.53,903.76 585.48,903.83 C 575.81,903.9 566.14,903.92 556.46,903.88 C 554.91,904.02 554.27,904.88 554.54,906.47 C 554.57,910.84 554.58,915.22 554.57,919.6 C 554.58,920.28 554.87,920.81 555.44,921.17 C 564.72,921.37 574.01,921.44 583.31,921.38 C 584.97,921.36 586.07,922.11 586.59,923.63 C 586.64,925.36 585.78,926.34 584.04,926.55 C 574.5,926.56 564.96,926.65 555.44,926.83 C 554.87,927.19 554.58,927.72 554.57,928.4 C 554.57,932.78 554.57,937.16 554.57,941.53 C 554.47,942.99 555.12,943.74 556.54,943.78 C 566.52,943.7 576.5,943.76 586.48,943.96 C 587.34,944.15 587.88,944.67 588.11,945.52 C 588.41,948.18 587.21,949.35 584.51,949.03 C 573.51,949.08 562.51,949.03 551.51,948.89 C 549.45,948.17 548.55,946.71 548.79,944.5 C 548.79,931 548.78,917.5 548.78,904 Z M 673.69,900.98 C 674.3,899.2 675.57,898.47 677.49,898.77 C 690.5,898.76 703.5,898.76 716.51,898.77 C 719.27,898.54 720.43,899.77 719.98,902.45 C 719.71,903.19 719.2,903.68 718.44,903.9 C 712.79,904.04 707.14,904.07 701.48,904.01 C 700.91,903.97 700.44,904.17 700.08,904.61 C 699.93,918.24 699.87,931.87 699.91,945.51 C 699.64,948.13 698.22,949.19 695.66,948.7 C 694.75,948.24 694.22,947.51 694.06,946.5 C 693.99,932.55 693.91,918.6 693.82,904.65 C 693.51,904.2 693.07,903.99 692.51,904.02 C 686.85,904.06 681.19,904.03 675.53,903.95 C 674.21,903.43 673.6,902.44 673.69,900.98 Z M 742.87,944 C 742.87,930.16 742.87,916.33 742.87,902.49 C 742.66,899.85 743.86,898.68 746.47,898.97 C 747.49,899.28 748.14,899.96 748.43,901.01 C 748.72,907.19 748.81,913.38 748.71,919.57 C 748.69,920.23 748.94,920.76 749.47,921.15 C 757.8,921.37 766.15,921.45 774.5,921.39 C 775.18,921.42 775.86,921.37 776.53,921.24 C 777.09,921.13 777.47,920.8 777.66,920.27 C 777.61,913.69 777.71,907.11 777.97,900.54 C 778.24,899.76 778.77,899.26 779.56,899.04 C 782.32,898.63 783.66,899.85 783.57,902.7 C 783.57,916.61 783.57,930.53 783.57,944.45 C 783.62,945.78 783.3,947 782.59,948.11 C 780.85,949.36 779.35,949.14 778.1,947.43 C 777.82,946.48 777.68,945.5 777.69,944.5 C 777.71,938.87 777.7,933.25 777.64,927.62 C 777.6,926.82 777.19,926.38 776.4,926.3 C 767.5,926.22 758.6,926.21 749.7,926.29 C 748.97,926.81 748.64,927.54 748.71,928.47 C 748.71,933.82 748.72,939.16 748.72,944.5 C 748.77,945.83 748.43,947.05 747.69,948.15 C 745.44,949.52 743.87,948.97 742.99,946.5 C 742.89,945.67 742.85,944.84 742.87,944 Z M 811.11,904 C 810.83,902.12 811.4,900.57 812.81,899.34 C 813.33,899.06 813.89,898.9 814.48,898.86 C 825.15,898.77 835.83,898.73 846.5,898.76 C 847.76,898.66 848.95,898.89 850.07,899.46 C 851.35,901.6 850.79,903.05 848.38,903.81 C 838.41,903.9 828.44,903.93 818.46,903.89 C 817.49,903.97 817.01,904.5 817,905.48 C 817.03,910.16 817.03,914.84 817,919.51 C 817.1,921.03 817.92,921.66 819.47,921.4 C 828.41,921.35 837.36,921.37 846.3,921.44 C 848.25,921.55 849.16,922.56 849.03,924.48 C 848.65,925.82 847.74,926.51 846.3,926.56 C 837.36,926.63 828.41,926.65 819.47,926.6 C 817.92,926.34 817.1,926.97 817,928.49 C 816.94,933.42 817.03,938.35 817.25,943.27 C 817.58,943.66 818.01,943.83 818.53,943.78 C 828.53,943.72 838.53,943.76 848.53,943.88 C 850.41,944.3 851.13,945.45 850.7,947.35 C 850.04,948.62 848.97,949.18 847.51,949.03 C 837.17,949.03 826.84,949.03 816.5,949.04 C 813.07,949.46 811.27,947.95 811.12,944.5 C 811.12,931 811.12,917.5 811.11,904 Z M 872.28,901.08 C 873.04,899.22 874.45,898.44 876.5,898.76 C 889.5,898.76 902.51,898.77 915.51,898.79 C 918.1,898.66 919.2,899.86 918.81,902.38 C 918.58,903.09 918.11,903.57 917.41,903.82 C 911.78,904.04 906.14,904.1 900.49,904.01 C 898.97,904.1 898.34,904.92 898.6,906.47 C 898.67,919.43 898.71,932.38 898.71,945.34 C 898.39,948.37 896.8,949.41 893.96,948.47 C 893.14,947.67 892.74,946.68 892.77,945.51 C 892.76,931.92 892.72,918.33 892.65,904.75 C 892.08,904.16 891.37,903.92 890.52,904.03 C 885.17,904.05 879.83,904.03 874.48,903.97 C 873.01,903.59 872.27,902.63 872.28,901.08 Z M 941.07,904 C 940.84,902.4 941.17,900.95 942.08,899.65 C 945.15,898.15 946.84,899.1 947.14,902.49 C 947.14,916.83 947.15,931.17 947.15,945.51 C 946.95,948.4 945.46,949.41 942.69,948.56 C 941.55,947.87 941.01,946.86 941.08,945.51 C 941.09,931.67 941.09,917.84 941.07,904 Z M 486.18,930.86 C 493.63,931.1 501.09,931.19 508.55,931.12 C 509.99,930.97 510.37,930.24 509.7,928.94 C 506.12,921.79 502.54,914.64 498.96,907.49 C 498.38,907.29 497.94,907.47 497.64,908.03 C 493.84,915.65 490.02,923.26 486.18,930.86 Z M 272.54,925.15 C 272.36,923.69 273,922.9 274.45,922.79 C 322.47,923.2 370.49,923.64 418.51,924.09 C 419.42,924.05 420.32,924.14 421.21,924.35 C 421.94,925.19 421.99,926.08 421.38,927.02 C 420.82,927.38 420.21,927.55 419.53,927.53 C 371.18,927.15 322.83,926.66 274.48,926.05 C 273.69,926.04 273.05,925.74 272.54,925.15 Z M 1141.21,925.93 C 1141.23,924.45 1141.99,923.84 1143.49,924.11 C 1192.51,923.65 1241.53,923.21 1290.55,922.79 C 1292.25,922.95 1292.79,923.84 1292.16,925.45 C 1291.71,925.92 1291.17,926.12 1290.52,926.07 C 1241.5,926.66 1192.49,927.15 1143.47,927.53 C 1142.24,927.59 1141.49,927.06 1141.21,925.93 Z"/></g>
<g><path fill="#2fa9a0" stroke="#2fa9a0" stroke-width="0.5" d="M 527.08,805.94 C 527.06,806.35 527.16,806.72 527.4,807.06 C 528.73,808.1 529.78,809.37 530.56,810.87 C 533.3,813.82 536.12,816.69 539.02,819.49 C 541.63,821.54 544.3,823.5 547.03,825.38 C 547.9,825.94 548.58,825.8 549.07,824.95 C 555.47,830.96 562.75,835.6 570.91,838.86 C 574.04,840.1 577.21,841.21 580.43,842.2 C 580.79,842.35 581.04,842.6 581.19,842.94 C 579,843.53 576.77,843.8 574.5,843.77 C 571.17,843.46 567.83,843.16 564.5,842.87 C 557.85,841.9 551.46,840.05 545.32,837.32 C 525.71,827.79 511.41,813.09 502.42,793.21 C 502.95,792.39 503.19,791.49 503.14,790.51 C 501.19,775.99 502.14,761.65 505.98,747.49 C 507.58,743.03 509.22,738.58 510.88,734.15 C 512.17,731.23 513.55,728.36 515.02,725.53 C 516.46,723.89 517.06,724.16 516.82,726.34 C 515.08,729.16 513.62,732.12 512.42,735.22 C 509.57,744.38 508.57,753.75 509.42,763.3 C 510.39,770.39 512.03,777.31 514.33,784.07 C 516.22,788.48 518.31,792.81 520.58,797.04 C 522.42,800.26 524.59,803.22 527.08,805.94 Z"/></g>
<g><path fill="#039893" stroke="#039893" stroke-width="0.5" d="M 524.88,707.88 C 525.71,708 526.54,708.12 527.37,708.25 C 527.9,709.07 528.33,709.95 528.64,710.9 C 530.63,711.08 532.56,711.49 534.45,712.11 C 535.1,712.13 535.73,712.04 536.35,711.86 C 537.92,710.41 539.25,710.58 540.36,712.37 C 537.67,715.57 535.21,718.95 533.01,722.5 C 524.42,737.01 520.69,752.68 521.81,769.5 C 522.59,782.13 526.18,793.89 532.58,804.8 C 531.8,805.9 530.78,806.66 529.51,807.06 C 528.8,806.44 527.99,806.06 527.08,805.94 C 524.59,803.22 522.42,800.26 520.58,797.04 C 518.31,792.81 516.22,788.48 514.33,784.07 C 512.03,777.31 510.39,770.39 509.42,763.3 C 508.57,753.75 509.57,744.38 512.42,735.22 C 513.62,732.12 515.08,729.16 516.82,726.34 C 517.06,724.16 516.46,723.89 515.02,725.53 C 513.55,728.36 512.17,731.23 510.88,734.15 C 509.22,738.58 507.58,743.03 505.98,747.49 C 502.14,761.65 501.19,775.99 503.14,790.51 C 503.19,791.49 502.95,792.39 502.42,793.21 C 498.56,784.65 495.84,775.74 494.25,766.49 C 494.05,763.47 493.67,760.47 493.1,757.5 C 492.94,756 492.95,754.5 493.15,753.01 C 495.38,747.61 497.84,742.27 500.52,737 C 506.79,725.74 514.91,716.04 524.88,707.88 Z"/></g>
<g><path fill="#0a9893" stroke="#0a9893" stroke-width="0.5" d="M 540.36,712.37 C 539.25,710.58 537.92,710.41 536.35,711.86 C 535.73,712.04 535.1,712.13 534.45,712.11 C 532.56,711.49 530.63,711.08 528.64,710.9 C 528.33,709.95 527.9,709.07 527.37,708.25 C 526.54,708.12 525.71,708 524.88,707.88 C 536.11,698.99 548.67,692.78 562.56,689.25 C 567.31,688.06 572.1,687.08 576.92,686.3 C 577.81,686.18 578.7,686.16 579.6,686.23 C 579.75,686.35 579.9,686.47 580.05,686.58 C 579.83,687.09 579.44,687.41 578.9,687.56 C 574.92,688.55 571.11,690.01 567.49,691.95 C 557.05,696.91 548.01,703.71 540.36,712.37 Z"/></g>
<g><path fill="#0d9692" stroke="#0d9692" stroke-width="0.5" d="M 532.58,804.8 C 537.07,812.34 542.57,819.05 549.07,824.95 C 548.58,825.8 547.9,825.94 547.03,825.38 C 544.3,823.5 541.63,821.54 539.02,819.49 C 536.12,816.69 533.3,813.82 530.56,810.87 C 529.78,809.37 528.73,808.1 527.4,807.06 C 527.16,806.72 527.06,806.35 527.08,805.94 C 527.99,806.06 528.8,806.44 529.51,807.06 C 530.78,806.66 531.8,805.9 532.58,804.8 Z"/></g>
<g><path fill="#010101" stroke="#010101" stroke-width="0.5" d="M 467.1,746 C 467.25,719.59 475.38,695.93 491.5,675.01 C 499.49,665.45 508.78,657.38 519.39,650.81 C 536.68,640.54 555.38,635.33 575.5,635.18 C 601.61,635.67 624.74,644.22 644.88,660.83 C 658.42,672.45 668.49,686.55 675.1,703.14 C 677.67,709.41 679.61,715.87 680.91,722.52 C 681.62,726.84 682.26,731.16 682.83,735.5 C 683.21,742.83 683.19,750.17 682.76,757.5 C 682.25,761.53 681.66,765.56 680.97,769.57 C 672.93,806.55 651.71,832.94 617.3,848.73 C 610.9,851.38 604.33,853.47 597.57,854.98 C 593.84,855.62 590.11,856.23 586.37,856.8 C 579.08,857.25 571.79,857.26 564.5,856.84 C 560.5,856.27 556.51,855.64 552.52,854.93 C 528.45,849.3 508.37,837.09 492.28,818.3 C 475.51,797.13 467.12,773.03 467.1,746 Z M 1172.71,810.92 C 1173,810.33 1173.4,809.82 1173.89,809.38 C 1175.68,807.82 1177.5,806.29 1179.35,804.79 C 1179.92,804.21 1180.6,803.96 1181.4,804.04 C 1184.39,807.69 1187.5,811.27 1190.73,814.77 C 1201.96,826.12 1215.12,834.41 1230.21,839.63 C 1239.77,842.41 1249.54,843.78 1259.5,843.75 C 1264.74,843.45 1269.93,842.77 1275.06,841.7 C 1287.66,838.27 1297.64,831.19 1305.02,820.45 C 1309.58,812.76 1311.84,804.45 1311.8,795.5 C 1311.61,790.07 1309.92,785.15 1306.75,780.75 C 1302.28,776.01 1297.19,772.08 1291.46,768.96 C 1287.55,766.76 1283.55,764.76 1279.46,762.94 C 1264.38,756.92 1249.27,751 1234.1,745.19 C 1228.73,742.6 1223.39,739.95 1218.07,737.24 C 1209.49,732.46 1201.97,726.38 1195.51,718.99 C 1190.61,712.98 1187.55,706.15 1186.31,698.49 C 1185.51,692.12 1185.8,685.8 1187.19,679.55 C 1190.15,668.59 1196.07,659.56 1204.94,652.45 C 1213.71,645.41 1223.57,640.65 1234.54,638.16 C 1243.08,636.18 1251.73,635.2 1260.5,635.22 C 1264.5,635.57 1268.5,635.92 1272.5,636.26 C 1278.66,637.25 1284.63,638.9 1290.43,641.2 C 1301.34,645.61 1311.16,651.74 1319.91,659.59 C 1324.69,663.76 1329.15,668.25 1333.27,673.08 C 1333.93,673.98 1333.82,674.78 1332.94,675.46 C 1330.72,677.19 1328.55,678.98 1326.43,680.82 C 1325.99,681.14 1325.51,681.26 1324.98,681.18 C 1321.91,678.41 1318.93,675.56 1316.01,672.62 C 1304.91,662.77 1292.26,655.64 1278.09,651.23 C 1269.32,648.92 1260.42,648.24 1251.39,649.19 C 1240.79,650.66 1231.52,654.97 1223.56,662.12 C 1215.44,670.22 1211.36,680 1211.32,691.46 C 1211.74,698.93 1214.81,705.08 1220.54,709.91 C 1227.53,715.37 1235.13,719.81 1243.32,723.22 C 1258.57,729.47 1273.89,735.55 1289.27,741.46 C 1296.88,744.93 1304.26,748.83 1311.41,753.17 C 1318.2,757.64 1324.11,763.05 1329.15,769.4 C 1331.27,772.05 1332.92,774.96 1334.1,778.14 C 1336.31,783.72 1337.33,789.51 1337.16,795.5 C 1337.25,801.48 1336.27,807.28 1334.22,812.91 C 1330.47,822.8 1324.55,831.15 1316.45,837.96 C 1308.23,844.56 1299.09,849.46 1289.04,852.66 C 1278.44,855.94 1267.59,857.43 1256.5,857.13 C 1243.24,857.08 1230.53,854.43 1218.36,849.18 C 1201.68,841.97 1187.77,831.2 1176.61,816.87 C 1175.14,815 1173.83,813.01 1172.71,810.92 Z M 240.65,644 C 240.6,643.18 240.73,642.4 241.05,641.65 C 241.45,641.24 241.94,641.07 242.52,641.13 C 248.84,641.15 255.17,641.16 261.49,641.16 C 262.29,641.15 262.98,641.41 263.56,641.96 C 306.07,700.14 348.53,758.35 390.96,816.59 C 391.44,817.56 392.2,817.97 393.24,817.8 C 393.6,817.43 393.76,816.98 393.72,816.45 C 393.68,758.45 393.7,700.46 393.78,642.46 C 393.98,641.53 394.56,641.09 395.52,641.13 C 399.17,641.15 402.83,641.16 406.49,641.15 C 407.31,641.06 408,641.29 408.57,641.84 C 408.75,711.04 408.82,780.25 408.77,849.47 C 408.66,850.81 407.91,851.38 406.52,851.18 C 400.17,851.18 393.83,851.18 387.48,851.17 C 386.61,851.14 385.89,850.79 385.33,850.13 C 343,792.09 300.67,734.04 258.36,675.99 C 257.93,675.27 257.34,674.74 256.59,674.4 C 256.14,674.6 255.88,674.95 255.81,675.45 C 255.71,733.45 255.68,791.45 255.73,849.46 C 255.63,850.78 254.9,851.36 253.52,851.18 C 249.83,851.17 246.14,851.18 242.45,851.19 C 241.8,851.23 241.29,851 240.89,850.5 C 240.66,781.68 240.58,712.84 240.65,644 Z M 713.65,641.9 C 714.16,641.38 714.78,641.13 715.52,641.14 C 723.48,641.11 731.43,641.15 739.39,641.27 C 739.85,641.35 740.21,641.58 740.47,641.96 C 764.13,700.98 787.75,760.01 811.33,819.07 C 811.55,820.23 812.22,820.85 813.34,820.93 C 813.82,820.64 814.15,820.24 814.35,819.72 C 838.02,760.44 861.73,701.18 885.49,641.93 C 886.37,641.25 887.37,640.99 888.5,641.14 C 892.83,641.16 897.16,641.15 901.49,641.13 C 902.06,641.07 902.56,641.23 902.97,641.63 C 903.14,642.56 902.99,643.44 902.54,644.28 C 874.53,713.15 846.43,781.98 818.24,850.75 C 817.71,851.05 817.14,851.19 816.53,851.18 C 811.18,851.18 805.83,851.18 800.48,851.18 C 799.57,851.23 798.82,850.92 798.23,850.24 C 769.95,780.83 741.75,711.38 713.65,641.9 Z M 953.12,644 C 953.09,643.25 953.16,642.51 953.33,641.78 C 953.62,641.36 954.02,641.16 954.53,641.18 C 961.52,641.15 968.5,641.14 975.49,641.13 C 976.43,641.1 976.97,641.55 977.12,642.47 C 977.15,686.81 977.2,731.16 977.26,775.5 C 977.45,786.51 979.81,797.03 984.37,807.05 C 991.04,821.14 1001.44,831.48 1015.54,838.06 C 1018.72,839.4 1021.94,840.63 1025.21,841.72 C 1030.58,842.84 1036.02,843.52 1041.5,843.78 C 1070.09,842.57 1089.95,828.79 1101.06,802.44 C 1103.65,795.31 1105.29,787.97 1105.97,780.43 C 1106.14,734.46 1106.22,688.5 1106.2,642.54 C 1106.24,641.69 1106.69,641.24 1107.54,641.19 C 1111.52,641.16 1115.5,641.14 1119.49,641.13 C 1120.04,641.08 1120.51,641.25 1120.89,641.66 C 1121.17,642.58 1121.28,643.53 1121.22,644.5 C 1121.21,686.83 1121.2,729.17 1121.21,771.5 C 1121.58,786.8 1118.38,801.31 1111.6,815.04 C 1101.49,834.25 1086.09,847.16 1065.42,853.77 C 1060.19,855.18 1054.88,856.2 1049.5,856.85 C 1043.5,857.22 1037.5,857.23 1031.5,856.88 C 1028.52,856.38 1025.52,855.97 1022.51,855.67 C 1008.16,853.27 995.13,847.75 983.42,839.12 C 970.59,829 961.84,816.11 957.17,800.44 C 954.39,791 953.05,781.35 953.13,771.5 C 953.13,729 953.13,686.5 953.12,644 Z M 493.15,753.01 C 492.95,754.5 492.94,756 493.1,757.5 C 493.67,760.47 494.05,763.47 494.25,766.49 C 495.84,775.74 498.56,784.65 502.42,793.21 C 511.41,813.09 525.71,827.79 545.32,837.32 C 551.46,840.05 557.85,841.9 564.5,842.87 C 567.83,843.16 571.17,843.46 574.5,843.77 C 576.77,843.8 579,843.53 581.19,842.94 C 584.88,843.07 588.51,842.68 592.09,841.77 C 608.46,837.31 622.23,828.69 633.42,815.9 C 645.01,801.91 652.48,785.98 655.83,768.11 C 657.84,755.96 658.17,743.76 656.83,731.52 C 656.23,726.12 655.22,720.79 653.81,715.54 C 649.23,698.22 640.61,683.22 627.96,670.54 C 621.41,664.41 614.08,659.44 605.96,655.64 C 594.03,650.28 581.54,648.1 568.5,649.11 C 556.99,650.3 546.28,653.86 536.35,659.81 C 521.38,669.35 510.19,682.19 502.77,698.32 C 498.83,707.04 496,716.1 494.28,725.51 C 492.92,734.64 492.55,743.8 493.15,753.01 Z"/></g>
</svg>
